<?xml version="1.0" encoding="iso-8859-1"?>
<!-- Generator: Adobe Illustrator 16.0.0, SVG Export Plug-In . SVG Version: 6.00 Build 0)  -->
<!DOCTYPE svg PUBLIC "-//W3C//DTD SVG 1.1//EN" "http://www.w3.org/Graphics/SVG/1.1/DTD/svg11.dtd">
<svg xmlns="http://www.w3.org/2000/svg" xmlns:xlink="http://www.w3.org/1999/xlink" version="1.1" id="Capa_1" x="0px" y="0px" width="512px" height="512px" viewBox="0 0 429.727 429.728" style="enable-background:new 0 0 429.727 429.728;" xml:space="preserve">
<g>
	<path d="M411.932,45.521c-86.42-28.33-190.48-44.669-194.867-45.351c-1.457-0.227-2.943-0.227-4.4,0   c-4.388,0.682-108.448,17.021-194.867,45.351c-5.886,1.93-9.866,7.423-9.866,13.617c0,55.55,10.479,109.505,31.148,160.366   c16.504,40.612,39.494,79.316,68.333,115.037c49.09,60.806,97.785,91.708,99.834,92.994c2.329,1.462,4.973,2.192,7.617,2.192   s5.289-0.73,7.617-2.192c2.049-1.286,50.744-32.188,99.834-92.994c28.84-35.72,51.83-74.425,68.334-115.037   c20.668-50.86,31.146-104.815,31.146-160.366C421.797,52.944,417.817,47.45,411.932,45.521z M358.12,96.636   c-6.729,72.401-34.646,139.685-83.08,200.141c-12.467,15.562-25.021,28.927-36.286,39.877l0.021-267.155   C267.131,74.785,313.424,84.186,358.12,96.636z" fill="#f7f7f7"/>
</g>
<g>
</g>
<g>
</g>
<g>
</g>
<g>
</g>
<g>
</g>
<g>
</g>
<g>
</g>
<g>
</g>
<g>
</g>
<g>
</g>
<g>
</g>
<g>
</g>
<g>
</g>
<g>
</g>
<g>
</g>
</svg>
